<?xml version="1.0" encoding="UTF-8" standalone="no"?>
<!DOCTYPE svg PUBLIC "-//W3C//DTD SVG 1.1//EN"
 "http://www.w3.org/Graphics/SVG/1.1/DTD/svg11.dtd">
<!-- Generated by graphviz version 12.1.1 (20240910.0053)
 -->
<!-- Title: INFRA Pages: 1 -->
<svg width="889pt" height="404pt"
 viewBox="0.00 0.00 889.30 404.00" xmlns="http://www.w3.org/2000/svg" xmlns:xlink="http://www.w3.org/1999/xlink">
<g id="graph0" class="graph" transform="scale(1 1) rotate(0) translate(4 400)">
<title>INFRA</title>
<polygon fill="white" stroke="none" points="-4,4 -4,-400 885.3,-400 885.3,4 -4,4"/>
<!-- OpensearchDomain -->
<g id="node1" class="node">
<title>OpensearchDomain</title>
<path fill="#ffcfb3" stroke="black" stroke-width="2" d="M384.64,-173.45C384.64,-177.07 350.54,-180 308.55,-180 266.57,-180 232.47,-177.07 232.47,-173.45 232.47,-173.45 232.47,-114.55 232.47,-114.55 232.47,-110.93 266.57,-108 308.55,-108 350.54,-108 384.64,-110.93 384.64,-114.55 384.64,-114.55 384.64,-173.45 384.64,-173.45"/>
<path fill="none" stroke="black" stroke-width="2" d="M384.64,-173.45C384.64,-169.84 350.54,-166.91 308.55,-166.91 266.57,-166.91 232.47,-169.84 232.47,-173.45"/>
<text text-anchor="middle" x="308.55" y="-148.2" font-family="Arial" font-size="14.00">OpensearchDomain</text>
<text text-anchor="middle" x="308.55" y="-131.4" font-family="Arial" font-size="14.00">(OpenSearchDomain)</text>
</g>
<!-- VPC -->
<g id="node2" class="node">
<title>VPC</title>
<path fill="#e6e6e6" stroke="black" stroke-width="2" d="M220.61,-72C220.61,-72 190.5,-72 190.5,-72 184.5,-72 178.5,-66 178.5,-60 178.5,-60 178.5,-12 178.5,-12 178.5,-6 184.5,0 190.5,0 190.5,0 220.61,0 220.61,0 226.61,0 232.61,-6 232.61,-12 232.61,-12 232.61,-60 232.61,-60 232.61,-66 226.61,-72 220.61,-72"/>
<text text-anchor="middle" x="205.55" y="-40.2" font-family="Arial" font-size="14.00">VPC</text>
<text text-anchor="middle" x="205.55" y="-23.4" font-family="Arial" font-size="14.00">(VPC)</text>
</g>
<!-- OpensearchDomain&#45;&gt;VPC -->
<g id="edge1" class="edge">
<title>OpensearchDomain&#45;&gt;VPC</title>
<path fill="none" stroke="black" d="M274.26,-107.7C263.53,-96.67 251.68,-84.47 240.89,-73.36"/>
<polygon fill="black" stroke="black" points="243.41,-70.93 233.93,-66.2 238.39,-75.81 243.41,-70.93"/>
</g>
<!-- SecurityGroup -->
<g id="node3" class="node">
<title>SecurityGroup</title>
<path fill="#e6e6e6" stroke="black" stroke-width="2" d="M353.96,-72C353.96,-72 263.15,-72 263.15,-72 257.15,-72 251.15,-66 251.15,-60 251.15,-60 251.15,-12 251.15,-12 251.15,-6 257.15,0 263.15,0 263.15,0 353.96,0 353.96,0 359.96,0 365.96,-6 365.96,-12 365.96,-12 365.96,-60 365.96,-60 365.96,-66 359.96,-72 353.96,-72"/>
<text text-anchor="middle" x="308.55" y="-40.2" font-family="Arial" font-size="14.00">SecurityGroup</text>
<text text-anchor="middle" x="308.55" y="-23.4" font-family="Arial" font-size="14.00">(SecurityGroup)</text>
</g>
<!-- OpensearchDomain&#45;&gt;SecurityGroup -->
<g id="edge2" class="edge">
<title>OpensearchDomain&#45;&gt;SecurityGroup</title>
<path fill="none" stroke="black" d="M308.55,-107.7C308.55,-99.93 308.55,-91.57 308.55,-83.43"/>
<polygon fill="black" stroke="black" points="312.05,-83.66 308.55,-73.66 305.05,-83.66 312.05,-83.66"/>
</g>
<!-- OpensearchProxyLambda -->
<g id="node4" class="node">
<title>OpensearchProxyLambda</title>
<path fill="#b7e0ff" stroke="black" stroke-width="2" d="M361.88,-288C361.88,-288 207.23,-288 207.23,-288 201.23,-288 195.23,-282 195.23,-276 195.23,-276 195.23,-228 195.23,-228 195.23,-222 201.23,-216 207.23,-216 207.23,-216 361.88,-216 361.88,-216 367.88,-216 373.88,-222 373.88,-228 373.88,-228 373.88,-276 373.88,-276 373.88,-282 367.88,-288 361.88,-288"/>
<text text-anchor="middle" x="284.55" y="-256.2" font-family="Arial" font-size="14.00">OpensearchProxyLambda</text>
<text text-anchor="middle" x="284.55" y="-239.4" font-family="Arial" font-size="14.00">(LambdaFunction)</text>
</g>
<!-- OpensearchProxyLambda&#45;&gt;OpensearchDomain -->
<g id="edge4" class="edge">
<title>OpensearchProxyLambda&#45;&gt;OpensearchDomain</title>
<path fill="none" stroke="black" d="M292.55,-215.7C294.33,-207.84 296.24,-199.38 298.11,-191.15"/>
<polygon fill="black" stroke="black" points="301.47,-192.14 300.26,-181.62 294.64,-190.6 301.47,-192.14"/>
</g>
<!-- OpensearchProxyLambda&#45;&gt;VPC -->
<g id="edge3" class="edge">
<title>OpensearchProxyLambda&#45;&gt;VPC</title>
<path fill="none" stroke="black" d="M247.08,-215.56C237.97,-204.98 229.22,-192.78 223.55,-180 210.13,-149.74 205.78,-112.58 204.7,-83.72"/>
<polygon fill="black" stroke="black" points="208.2,-83.73 204.46,-73.82 201.2,-83.9 208.2,-83.73"/>
</g>
<!-- OpensearchIndexLambda -->
<g id="node5" class="node">
<title>OpensearchIndexLambda</title>
<path fill="#b7e0ff" stroke="black" stroke-width="2" d="M165.11,-288C165.11,-288 12,-288 12,-288 6,-288 0,-282 0,-276 0,-276 0,-228 0,-228 0,-222 6,-216 12,-216 12,-216 165.11,-216 165.11,-216 171.11,-216 177.11,-222 177.11,-228 177.11,-228 177.11,-276 177.11,-276 177.11,-282 171.11,-288 165.11,-288"/>
<text text-anchor="middle" x="88.55" y="-256.2" font-family="Arial" font-size="14.00">OpensearchIndexLambda</text>
<text text-anchor="middle" x="88.55" y="-239.4" font-family="Arial" font-size="14.00">(LambdaFunction)</text>
</g>
<!-- OpensearchIndexLambda&#45;&gt;OpensearchDomain -->
<g id="edge6" class="edge">
<title>OpensearchIndexLambda&#45;&gt;OpensearchDomain</title>
<path fill="none" stroke="black" d="M162.12,-215.56C183.79,-205.11 207.59,-193.64 229.59,-183.04"/>
<polygon fill="black" stroke="black" points="231.04,-186.23 238.53,-178.74 228,-179.93 231.04,-186.23"/>
</g>
<!-- OpensearchIndexLambda&#45;&gt;VPC -->
<g id="edge5" class="edge">
<title>OpensearchIndexLambda&#45;&gt;VPC</title>
<path fill="none" stroke="black" d="M107.87,-215.66C127.82,-179.19 159,-122.15 180.75,-82.36"/>
<polygon fill="black" stroke="black" points="183.75,-84.17 185.48,-73.72 177.61,-80.81 183.75,-84.17"/>
</g>
<!-- OpensearchSearchLambda -->
<g id="node6" class="node">
<title>OpensearchSearchLambda</title>
<path fill="#b7e0ff" stroke="black" stroke-width="2" d="M567.16,-288C567.16,-288 403.94,-288 403.94,-288 397.94,-288 391.94,-282 391.94,-276 391.94,-276 391.94,-228 391.94,-228 391.94,-222 397.94,-216 403.94,-216 403.94,-216 567.16,-216 567.16,-216 573.16,-216 579.16,-222 579.16,-228 579.16,-228 579.16,-276 579.16,-276 579.16,-282 573.16,-288 567.16,-288"/>
<text text-anchor="middle" x="485.55" y="-256.2" font-family="Arial" font-size="14.00">OpensearchSearchLambda</text>
<text text-anchor="middle" x="485.55" y="-239.4" font-family="Arial" font-size="14.00">(LambdaFunction)</text>
</g>
<!-- OpensearchSearchLambda&#45;&gt;OpensearchDomain -->
<g id="edge8" class="edge">
<title>OpensearchSearchLambda&#45;&gt;OpensearchDomain</title>
<path fill="none" stroke="black" d="M426.62,-215.7C410.14,-205.84 392.12,-195.04 375.23,-184.93"/>
<polygon fill="black" stroke="black" points="377.11,-181.98 366.73,-179.84 373.51,-187.98 377.11,-181.98"/>
</g>
<!-- OpensearchSearchLambda&#45;&gt;VPC -->
<g id="edge7" class="edge">
<title>OpensearchSearchLambda&#45;&gt;VPC</title>
<path fill="none" stroke="black" d="M472.02,-215.72C457.57,-182.82 431.49,-134.89 393.55,-108 340.01,-70.05 306.61,-101.42 243.08,-70.97"/>
<polygon fill="black" stroke="black" points="244.88,-67.97 234.39,-66.47 241.66,-74.18 244.88,-67.97"/>
</g>
<!-- APIGateway -->
<g id="node7" class="node">
<title>APIGateway</title>
<path fill="#e78f81" stroke="black" stroke-width="2" d="M324.12,-396C324.12,-396 244.99,-396 244.99,-396 238.99,-396 232.99,-390 232.99,-384 232.99,-384 232.99,-336 232.99,-336 232.99,-330 238.99,-324 244.99,-324 244.99,-324 324.12,-324 324.12,-324 330.12,-324 336.12,-330 336.12,-336 336.12,-336 336.12,-384 336.12,-384 336.12,-390 330.12,-396 324.12,-396"/>
<text text-anchor="middle" x="284.55" y="-364.2" font-family="Arial" font-size="14.00">APIGateway</text>
<text text-anchor="middle" x="284.55" y="-347.4" font-family="Arial" font-size="14.00">(APIGateway)</text>
</g>
<!-- APIGateway&#45;&gt;OpensearchProxyLambda -->
<g id="edge9" class="edge">
<title>APIGateway&#45;&gt;OpensearchProxyLambda</title>
<path fill="none" stroke="black" d="M284.55,-323.7C284.55,-315.93 284.55,-307.57 284.55,-299.43"/>
<polygon fill="black" stroke="black" points="288.05,-299.66 284.55,-289.66 281.05,-299.66 288.05,-299.66"/>
</g>
<!-- APIGateway&#45;&gt;OpensearchIndexLambda -->
<g id="edge10" class="edge">
<title>APIGateway&#45;&gt;OpensearchIndexLambda</title>
<path fill="none" stroke="black" d="M232.54,-330.87C211.6,-319.55 187.03,-306.26 164.18,-293.9"/>
<polygon fill="black" stroke="black" points="165.96,-290.88 155.5,-289.2 162.63,-297.04 165.96,-290.88"/>
</g>
<!-- APIGateway&#45;&gt;OpensearchSearchLambda -->
<g id="edge11" class="edge">
<title>APIGateway&#45;&gt;OpensearchSearchLambda</title>
<path fill="none" stroke="black" d="M336.58,-331.56C358.46,-320.02 384.38,-306.36 408.4,-293.69"/>
<polygon fill="black" stroke="black" points="410.02,-296.79 417.23,-289.03 406.75,-290.6 410.02,-296.79"/>
</g>
<!-- AppRunnerService -->
<g id="node8" class="node">
<title>AppRunnerService</title>
<path fill="#b7e0ff" stroke="black" stroke-width="2" d="M717.97,-396C717.97,-396 599.14,-396 599.14,-396 593.14,-396 587.14,-390 587.14,-384 587.14,-384 587.14,-336 587.14,-336 587.14,-330 593.14,-324 599.14,-324 599.14,-324 717.97,-324 717.97,-324 723.97,-324 729.97,-330 729.97,-336 729.97,-336 729.97,-384 729.97,-384 729.97,-390 723.97,-396 717.97,-396"/>
<text text-anchor="middle" x="658.55" y="-364.2" font-family="Arial" font-size="14.00">AppRunnerService</text>
<text text-anchor="middle" x="658.55" y="-347.4" font-family="Arial" font-size="14.00">(AppRunnerService)</text>
</g>
<!-- ECRRepository -->
<g id="node9" class="node">
<title>ECRRepository</title>
<path fill="#fff5cd" stroke="black" stroke-width="2" d="M719.45,-281.45C719.45,-285.07 692.16,-288 658.55,-288 624.95,-288 597.65,-285.07 597.65,-281.45 597.65,-281.45 597.65,-222.55 597.65,-222.55 597.65,-218.93 624.95,-216 658.55,-216 692.16,-216 719.45,-218.93 719.45,-222.55 719.45,-222.55 719.45,-281.45 719.45,-281.45"/>
<path fill="none" stroke="black" stroke-width="2" d="M719.45,-281.45C719.45,-277.84 692.16,-274.91 658.55,-274.91 624.95,-274.91 597.65,-277.84 597.65,-281.45"/>
<text text-anchor="middle" x="658.55" y="-256.2" font-family="Arial" font-size="14.00">ECRRepository</text>
<text text-anchor="middle" x="658.55" y="-239.4" font-family="Arial" font-size="14.00">(ECRRepository)</text>
</g>
<!-- AppRunnerService&#45;&gt;ECRRepository -->
<g id="edge12" class="edge">
<title>AppRunnerService&#45;&gt;ECRRepository</title>
<path fill="none" stroke="black" d="M658.55,-323.7C658.55,-315.93 658.55,-307.57 658.55,-299.43"/>
<polygon fill="black" stroke="black" points="662.05,-299.66 658.55,-289.66 655.05,-299.66 662.05,-299.66"/>
</g>
<!-- LambdaLayer -->
<g id="node10" class="node">
<title>LambdaLayer</title>
<path fill="#b7e0ff" stroke="black" stroke-width="2" d="M858.02,-288C858.02,-288 771.09,-288 771.09,-288 765.09,-288 759.09,-282 759.09,-276 759.09,-276 759.09,-228 759.09,-228 759.09,-222 765.09,-216 771.09,-216 771.09,-216 858.02,-216 858.02,-216 864.02,-216 870.02,-222 870.02,-228 870.02,-228 870.02,-276 870.02,-276 870.02,-282 864.02,-288 858.02,-288"/>
<text text-anchor="middle" x="814.55" y="-256.2" font-family="Arial" font-size="14.00">LambdaLayer</text>
<text text-anchor="middle" x="814.55" y="-239.4" font-family="Arial" font-size="14.00">(LambdaLayer)</text>
</g>
<!-- CodeBuildProject -->
<g id="node11" class="node">
<title>CodeBuildProject</title>
<path fill="#e6e6e6" stroke="black" stroke-width="2" d="M869.3,-396C869.3,-396 759.81,-396 759.81,-396 753.81,-396 747.81,-390 747.81,-384 747.81,-384 747.81,-336 747.81,-336 747.81,-330 753.81,-324 759.81,-324 759.81,-324 869.3,-324 869.3,-324 875.3,-324 881.3,-330 881.3,-336 881.3,-336 881.3,-384 881.3,-384 881.3,-390 875.3,-396 869.3,-396"/>
<text text-anchor="middle" x="814.55" y="-364.2" font-family="Arial" font-size="14.00">CodeBuildProject</text>
<text text-anchor="middle" x="814.55" y="-347.4" font-family="Arial" font-size="14.00">(CodeBuildProject)</text>
</g>
<!-- CodeBuildProject&#45;&gt;LambdaLayer -->
<g id="edge13" class="edge">
<title>CodeBuildProject&#45;&gt;LambdaLayer</title>
<path fill="none" stroke="black" d="M814.55,-323.7C814.55,-315.93 814.55,-307.57 814.55,-299.43"/>
<polygon fill="black" stroke="black" points="818.05,-299.66 814.55,-289.66 811.05,-299.66 818.05,-299.66"/>
</g>
</g>
</svg>
